HIERARCHY
ROOT Hips
{
 OFFSET 0.000000 0.000000 0.000000
 CHANNELS 6 Xposition Yposition Zposition Yrotation Xrotation Zrotation
 JOINT Chest
 {
  OFFSET 0.000000 10.732652 -1.192517
  CHANNELS 3 Yrotation Xrotation Zrotation
  JOINT Chest2
  {
   OFFSET 0.000000 11.997505 0.000000
   CHANNELS 3 Yrotation Xrotation Zrotation
   JOINT Chest3
   {
    OFFSET 0.000000 10.952384 0.009465
    CHANNELS 3 Yrotation Xrotation Zrotation
    JOINT Chest4
    {
     OFFSET 0.000000 10.940161 0.009474
     CHANNELS 3 Yrotation Xrotation Zrotation
     JOINT Neck
     {
      OFFSET 0.000000 15.318103 0.000000
      CHANNELS 3 Yrotation Xrotation Zrotation
      JOINT Head
      {
       OFFSET 0.000000 10.182869 -0.020355
       CHANNELS 3 Yrotation Xrotation Zrotation
       End Site
       {
        OFFSET 0.000000 18.958122 -0.002737
       }
      }
     }
     JOINT RightCollar
     {
      OFFSET -3.312154 8.580934 0.000000
      CHANNELS 3 Yrotation Xrotation Zrotation
      JOINT RightShoulder
      {
       OFFSET -15.294669 0.000000 0.000000
       CHANNELS 3 Yrotation Xrotation Zrotation
       JOINT RightElbow
       {
        OFFSET -32.654290 0.000000 0.000000
        CHANNELS 3 Yrotation Xrotation Zrotation
        JOINT RightWrist
        {
         OFFSET -26.708255 0.000000 0.000000
         CHANNELS 3 Yrotation Xrotation Zrotation
         JOINT Prop1
         {
          OFFSET -9.827041 -1.091893 2.183787
          CHANNELS 3 Yrotation Xrotation Zrotation
          End Site
          {
           OFFSET 0.000000 0.000000 228.224219
          }
         }
         End Site
         {
          OFFSET -19.981651 0.000000 0.000000
         }
        }
       }
      }
     }
     JOINT LeftCollar
     {
      OFFSET 3.312154 8.580934 0.000000
      CHANNELS 3 Yrotation Xrotation Zrotation
      JOINT LeftShoulder
      {
       OFFSET 15.294669 0.000000 0.000000
       CHANNELS 3 Yrotation Xrotation Zrotation
       JOINT LeftElbow
       {
        OFFSET 32.654290 0.000000 0.000000
        CHANNELS 3 Yrotation Xrotation Zrotation
        JOINT LeftWrist
        {
         OFFSET 26.708255 0.000000 0.000000
         CHANNELS 3 Yrotation Xrotation Zrotation
         End Site
         {
          OFFSET 19.981651 0.000000 0.000000
         }
        }
       }
      }
     }
    }
   }
  }
 }
 JOINT RightHip
 {
  OFFSET -8.786175 -0.021959 0.002440
  CHANNELS 3 Yrotation Xrotation Zrotation
  JOINT RightKnee
  {
   OFFSET 0.000000 -45.774904 0.002237
   CHANNELS 3 Yrotation Xrotation Zrotation
   JOINT RightAnkle
   {
    OFFSET 0.000000 -44.762185 0.003772
    CHANNELS 3 Yrotation Xrotation Zrotation
    JOINT RightToe
    {
     OFFSET 0.000000 -7.170516 16.163684
     CHANNELS 3 Yrotation Xrotation Zrotation
     End Site
     {
      OFFSET 0.000000 -1.639016 6.993137
     }
    }
   }
  }
 }
 JOINT LeftHip
 {
  OFFSET 8.786175 -0.024373 0.002708
  CHANNELS 3 Yrotation Xrotation Zrotation
  JOINT LeftKnee
  {
   OFFSET 0.000000 -45.774904 0.002237
   CHANNELS 3 Yrotation Xrotation Zrotation
   JOINT LeftAnkle
   {
    OFFSET 0.000000 -44.762185 0.003772
    CHANNELS 3 Yrotation Xrotation Zrotation
    JOINT LeftToe
    {
     OFFSET 0.000000 -7.170516 16.163684
     CHANNELS 3 Yrotation Xrotation Zrotation
     End Site
     {
      OFFSET 0.000000 -1.639016 6.993137
     }
    }
   }
  }
 }
}
MOTION
Frames: 10
Frame Time: 0.016667
0.963505 97.588659 21.494391 -24.531776 3.495716 -0.608546 -2.342011 1.433811 -0.632764 -1.010927 -5.185839 -0.275076 -1.006814 0.633692 -0.377701 -0.783571 6.312508 -0.284010 0.623195 17.148365 1.060688 0.786976 -4.183355 1.746565 2.406389 -1.328296 0.495598 -12.483157 -27.920726 59.753651 34.761364 -31.574232 55.146730 -9.217225 2.689285 -16.110269 -63.149178 15.559955 -5.399221 0.779327 1.836658 -4.175224 8.764677 -26.807376 -58.825947 -53.069405 -30.964360 -39.608101 17.725218 -2.898739 18.637102 0.231103 -22.734979 -1.189959 -4.461316 6.437575 -1.856959 -5.742375 -3.778109 10.699890 -0.000000 -0.000000 0.000000 3.501913 -3.043177 -2.447990 -0.837482 15.853431 0.658018 2.563165 -16.655646 1.360947 0.000172 0.008908 -0.066432
0.459702 97.409735 22.271632 -24.147204 3.434426 -0.307619 -2.447735 1.210775 -0.720189 -1.053960 -5.284340 -0.315001 -1.049486 0.535113 -0.421992 -0.819004 6.238658 -0.317518 0.603598 17.274093 1.073004 0.747695 -3.949647 1.775824 2.337113 -1.490496 0.529351 -12.377644 -28.032041 59.568204 34.146393 -31.877054 56.137720 -9.521909 2.682592 -16.669093 -63.538988 15.228991 -5.611268 0.764502 1.695861 -4.116279 8.426328 -27.149843 -58.547834 -52.695043 -30.866232 -39.539145 17.924988 -2.899673 18.516332 0.207830 -22.695333 -1.535697 -4.100791 6.530902 -1.720787 -5.191344 -3.898872 10.714016 -0.000000 0.000000 -0.000000 3.760865 -2.505694 -2.563624 -1.029412 16.079615 0.692166 2.102587 -17.229605 1.000914 0.000275 0.017799 -0.132866
-0.098210 97.237374 23.067380 -23.772320 3.322981 -0.046445 -2.539585 1.029745 -0.786444 -1.091850 -5.364274 -0.345379 -1.087055 0.455106 -0.456213 -0.849841 6.178723 -0.343412 0.585199 17.369763 1.077637 0.713078 -3.771794 1.790494 2.287322 -1.638459 0.558460 -12.179608 -28.107231 59.360904 33.728776 -32.189800 56.901214 -9.825302 2.680285 -17.181075 -63.928838 14.860083 -5.713366 0.748184 1.555456 -4.066631 8.081374 -27.507358 -58.247802 -52.212728 -30.851444 -39.561973 18.070566 -2.908240 18.417965 0.142031 -22.637024 -1.786237 -3.686476 6.970921 -1.594784 -4.901277 -3.661011 10.436204 0.000000 0.000000 0.000000 3.986863 -1.974965 -2.597685 -1.256958 16.447430 0.715279 1.728370 -17.809994 0.558778 0.000000 -0.000000 -0.000000
-0.726129 97.062950 23.883618 -23.411635 3.135481 0.173712 -2.613362 0.909246 -0.834911 -1.122508 -5.417414 -0.367568 -1.117472 0.401907 -0.481514 -0.874621 6.138880 -0.362550 0.566275 17.413165 1.074186 0.679774 -3.691029 1.790494 2.266078 -1.759201 0.593734 -11.792546 -28.098974 59.083551 33.769704 -32.543808 57.213528 -10.155939 2.682135 -17.595342 -64.341131 14.394721 -5.548607 0.721089 1.418480 -4.018335 7.742224 -27.891930 -57.898060 -51.501658 -31.073445 -39.825391 18.132427 -2.937070 18.406292 -0.034211 -22.555568 -1.853220 -3.103596 7.846968 -1.527254 -4.997794 -2.849261 9.693773 0.000000 -0.000000 -0.000000 4.158060 -1.412508 -2.532386 -1.536121 16.952154 0.704521 1.470833 -18.477432 0.050307 0.001769 0.095768 0.458871
-1.408156 96.895090 24.718363 -23.061110 2.898739 0.353064 -2.674388 0.830783 -0.861674 -1.148482 -5.452013 -0.379875 -1.143260 0.367258 -0.496457 -0.895131 6.112935 -0.373855 0.548827 17.426577 1.062921 0.651527 -3.665995 1.775597 2.264446 -1.865693 0.624855 -11.315937 -28.050653 58.788585 34.024407 -32.906136 57.289889 -10.489351 2.687589 -17.959764 -64.756965 13.895152 -5.272695 0.692907 1.281875 -3.979481 7.395086 -28.291596 -57.524942 -50.677980 -31.377486 -40.180927 18.140994 -2.973455 18.418856 -0.252923 -22.457337 -1.825882 -2.468658 9.072579 -1.454531 -5.399180 -1.674036 8.679147 -0.000000 -0.000000 0.000000 4.299295 -0.860128 -2.386607 -1.854105 17.597918 0.683000 1.299860 -19.150973 -0.542922 0.007480 0.164757 1.117046
-2.136646 96.778272 25.571061 -22.768561 2.583556 0.453874 -2.703400 0.805472 -0.851642 -1.161882 -5.463274 -0.375499 -1.156576 0.355968 -0.493440 -0.904897 6.104473 -0.371588 0.533109 17.448354 1.051390 0.626618 -3.625442 1.759580 2.278925 -1.982002 0.650467 -11.004457 -28.039199 58.601493 34.124264 -33.162726 57.451433 -10.759193 2.698549 -18.317586 -65.158724 13.490253 -5.111552 0.682940 1.146551 -3.966372 7.049612 -28.704533 -57.184254 -49.919407 -31.499424 -40.431213 18.139776 -3.001226 18.382996 -0.290749 -22.173351 -1.785810 -1.969889 10.132908 -1.379589 -6.083545 -0.394324 7.806196 0.000000 -0.000000 0.000000 4.377907 -0.336919 -2.136771 -2.037629 18.416591 0.695732 1.163598 -19.557735 -1.290553 0.008395 -0.241035 1.793535
-2.922618 96.730771 26.457048 -22.561080 2.109210 0.424180 -2.689500 0.874472 -0.777316 -1.159111 -5.433090 -0.341916 -1.153878 0.386154 -0.459575 -0.900268 6.127061 -0.346001 0.519350 17.495873 1.042345 0.604748 -3.537101 1.747415 2.319267 -2.139156 0.667067 -11.003919 -28.119753 58.566558 33.804595 -33.272136 57.920742 -10.923513 2.723466 -18.706308 -65.554992 13.263902 -5.229886 0.721328 0.998685 -3.998953 6.676240 -29.139326 -56.874727 -49.329185 -31.295967 -40.488019 18.140163 -3.010247 18.272521 0.045208 -21.533747 -1.769074 -1.805161 10.780838 -1.328866 -7.126119 1.127265 7.296650 0.000000 0.000000 0.000000 4.354436 0.263323 -1.750847 -2.003963 19.377808 0.792474 1.077418 -19.677766 -2.245120 -0.009719 -1.240542 2.407654
-3.755052 96.734311 27.360987 -22.409781 1.557797 0.316018 -2.644605 0.996210 -0.664707 -1.144355 -5.379729 -0.291004 -1.139301 0.439545 -0.407165 -0.885309 6.167020 -0.306398 0.507211 17.551757 1.033276 0.585980 -3.433243 1.734635 2.376206 -2.305906 0.677966 -11.167678 -28.242464 58.634177 33.322130 -33.276721 58.480120 -11.020851 2.756983 -19.091029 -65.935711 13.128190 -5.464897 0.778910 0.852764 -4.057112 6.306703 -29.588163 -56.598830 -48.810529 -30.910297 -40.440378 18.129493 -3.011423 18.113518 0.558193 -20.709199 -1.723290 -1.775589 11.261515 -1.286621 -8.424515 2.745079 6.913352 0.000000 0.000000 0.000000 4.270816 0.834951 -1.266295 -1.835465 20.513668 0.925547 0.998049 -19.528673 -3.345775 -0.055573 -2.715774 3.037740
-4.593248 96.778545 28.236320 -22.280003 1.144144 0.248405 -2.583192 1.058040 -0.579666 -1.121047 -5.352824 -0.252820 -1.116158 0.466499 -0.366618 -0.864856 6.187162 -0.275787 0.496049 17.602200 1.023920 0.569069 -3.339497 1.721021 2.417200 -2.413130 0.692257 -11.311395 -28.329344 58.787332 33.084702 -33.197255 58.800601 -11.106018 2.780085 -19.408184 -66.252294 12.955009 -5.551328 0.785317 0.751585 -4.096914 6.045522 -30.025188 -56.418877 -48.247627 -30.509521 -40.350029 18.116147 -3.020508 17.911370 0.890486 -20.039537 -1.612600 -1.472335 11.797765 -1.201087 -9.660063 3.774631 6.391561 0.000000 0.000000 0.000000 4.211499 1.040351 -0.763066 -1.610090 21.951276 0.997405 0.767243 -18.896675 -4.480549 -0.141251 -4.758911 3.742718
-5.423797 96.874257 29.059335 -22.156676 1.007722 0.273318 -2.509708 0.987177 -0.549424 -1.089865 -5.384576 -0.239890 -1.085053 0.434809 -0.350523 -0.840334 6.163353 -0.263714 0.482989 17.646502 1.011508 0.549598 -3.257161 1.702417 2.423850 -2.404756 0.717548 -11.404389 -28.363202 59.046190 33.328091 -32.972562 58.709330 -11.194754 2.777218 -19.597873 -66.479396 12.678100 -5.336678 0.701132 0.735792 -4.097411 6.009022 -30.476185 -56.406466 -47.517263 -30.146226 -40.298836 18.099501 -3.047311 17.676202 0.905396 -19.739736 -1.437459 -0.519069 12.531016 -1.015790 -10.856462 3.777125 5.611807 0.000000 0.000000 -0.000000 4.270898 0.659248 -0.246494 -1.406678 23.765259 0.958529 0.261649 -17.676016 -5.599599 -0.285281 -7.450134 4.548306
